<?xml version="1.0" encoding="utf-8"?>
<!-- Generator: Adobe Illustrator 16.0.0, SVG Export Plug-In . SVG Version: 6.00 Build 0)  -->
<!DOCTYPE svg PUBLIC "-//W3C//DTD SVG 1.1//EN" "http://www.w3.org/Graphics/SVG/1.1/DTD/svg11.dtd">
<svg version="1.1" id="Layer_1" xmlns="http://www.w3.org/2000/svg" xmlns:xlink="http://www.w3.org/1999/xlink" x="0px" y="0px"
	 width="572.523px" height="113.75px" viewBox="-92.477 30.75 572.523 113.75"
	 enable-background="new -92.477 30.75 572.523 113.75" xml:space="preserve">
<g>
	<path fill="#FFFFFF" d="M-43.413,100.24v28.365H-61.28V100.14L-85,56.634h18.876l14.333,28.063l14.333-28.063h17.766
		L-43.413,100.24z"/>
	<path fill="#FFFFFF" d="M12.607,129.815c-16.15,0-30.787-7.672-30.787-26.346V82.778c0-18.271,14.838-27.356,30.282-27.356
		c16.05,0,30.988,8.58,30.988,27.153v19.986C43.09,121.337,27.647,129.815,12.607,129.815z M12.305,70.16
		c-6.461,0-12.416,3.432-12.416,11.811v21.097c0,7.671,5.35,12.011,12.719,12.011c6.258,0,12.415-3.735,12.415-11.91V81.869
		C25.022,74.299,19.067,70.16,12.305,70.16z"/>
	<path fill="#FFFFFF" d="M82.96,129.815c-18.271,0-29.778-8.579-29.778-26.647V56.634h18.069v45.222
		c0,8.075,4.24,13.122,12.214,13.122c7.57,0,12.012-4.542,12.012-13.021V56.634h17.665v45.727
		C113.141,120.327,99.817,129.815,82.96,129.815z"/>
	<path fill="#FFFFFF" d="M165.527,128.605l-14.233-25.438h-8.176v25.438H125.05V56.634h31.494c7.167,0,12.718,1.515,17.259,4.846
		c5.553,4.037,8.48,10.699,8.48,17.865c0,8.782-4.239,17.362-13.626,21.198l16.554,28.063H165.527z M154.222,70.766h-11.204v19.077
		h11.204c6.459,0,10.498-3.734,10.498-9.589C164.719,73.592,160.278,70.766,154.222,70.766z"/>
	<path fill="#FFFFFF" d="M218.618,128.605V56.634h17.968v57.232h34.319v14.739H218.618z"/>
	<path fill="#FFFFFF" d="M308.352,129.815c-16.151,0-30.786-7.672-30.786-26.346V82.778c0-18.271,14.837-27.356,30.28-27.356
		c16.051,0,30.989,8.58,30.989,27.153v19.986C338.835,121.337,323.392,129.815,308.352,129.815z M308.049,70.16
		c-6.461,0-12.415,3.432-12.415,11.811v21.097c0,7.671,5.349,12.011,12.718,12.011c6.259,0,12.415-3.735,12.415-11.91V81.869
		C320.767,74.299,314.812,70.16,308.049,70.16z"/>
	<path fill="#FFFFFF" d="M378.2,129.815c-15.849,0-30.686-6.964-30.686-25.943V81.971c0-17.665,14.333-26.548,30.18-26.548
		c14.031,0,29.576,6.562,29.576,23.317v2.625h-16.958v-1.312c0-7.571-6.459-10.296-12.012-10.296
		c-6.258,0-12.719,3.332-12.719,11.506v22.207c0,7.369,5.351,11.912,12.719,11.912c6.157,0,11.709-3.028,11.709-10.498v-1.816
		h-14.536V89.641h31.797v16.556C407.271,122.749,392.129,129.815,378.2,129.815z"/>
	<path fill="#FFFFFF" d="M446.23,129.815c-16.151,0-30.786-7.672-30.786-26.346V82.778c0-18.271,14.838-27.356,30.281-27.356
		c16.051,0,30.988,8.58,30.988,27.153v19.986C476.714,121.337,461.271,129.815,446.23,129.815z M445.928,70.16
		c-6.461,0-12.415,3.432-12.415,11.811v21.097c0,7.671,5.35,12.011,12.718,12.011c6.259,0,12.415-3.735,12.415-11.91V81.869
		C458.646,74.299,452.69,70.16,445.928,70.16z"/>
</g>
</svg>
